<svg id="esEoYn6kwzA1" xmlns="http://www.w3.org/2000/svg" xmlns:xlink="http://www.w3.org/1999/xlink" viewBox="0 0 1600 300" shape-rendering="geometricPrecision" text-rendering="geometricPrecision" project-id="866c8ea122084b78bcaad6f92acc0580" export-id="ffa706c16cc948079d9608b651e49f26" cached="false">
  <style>
    @import url('https://fonts.googleapis.com/css2?family=Aldrich');
    text, tspan {
        font-family: "Aldrich", sans-serif;
        font-weight: 900;
    }
  </style>

  <path class="logo-mic" d="M158.538899,90.564085l40.883216-36.225634c-29.235455-48.835044-77.06602-44.000354-96.774194.517509v30.533034L150,86.424012l8.538899,4.140073Z" stroke-width="0.6"/>
  <path class="logo-mic" d="M102.647921,156.287735q0-.517509-1.035018-53.820942h39.330689l-20.700363,34.155598L150,143.350009l-25.099189,48.128342c-10.244521-5.996943-24.888928-18.967521-22.25289-35.190616Z" stroke-width="0.6"/>
  <path d="M133.698465,195.618423l71.933759-63.653614-13.455237-9.832672l37.260651-59.513542-79.43764,64.171123l16.301535,9.832672-32.603068,58.996033Z" class="logo-thunder" transform="translate(.000002 0.000001)" stroke-width="0.6"/>
  <path class="logo-mic" d="M108.340521,254.614456l83.836468-1.035018c6.711892,4.906252,7.161272,14.48017,0,19.147835l-83.836468-.517509c-9.340525-5.960128-5.883605-13.893552,0-17.595308Z" stroke-width="0.6"/>
  <path class="logo-mic" d="M158.538898,217.145039l.000001,37.469417h-17.595307v-37.469417h17.595306Z" transform="translate(.000001 0)" stroke-width="0.6"/>
  <path class="logo-mic" d="M69.527342,164.567883c4.5841,43.044618,43.376738,67.886706,71.41625,65.723647l17.595308.517509c30.571619-1.781618,70.612261-27.326599,70.89874-66.241156v-27.945489c-4.343289-11.82223-13.262863-14.69571-18.112815,0l.517509,27.945489c-15.873854,34.334737-37.153135,50.417465-57.811442,52.577156-26.567471,2.777456-52.107908-17.472489-63.803187-51.542139l-1.035019-28.980507c-3.66874-13.205658-13.494686-13.276286-19.665344-.000001q0,25.150942,0,27.945491Z" stroke-width="0.6"/>
  <path class="logo-mic" d="M149.741247,195.618424l49.680868-45.618426c-2.888067,17.155895-17.27103,47.369427-49.680868,45.618426Z" transform="translate(0 0.000002)" stroke-width="0.6"/>
    <text class="logo-text-first" x="300" y="200" font-size="140">MEDIA<tspan>CRITIQUE</tspan></text>

</svg>
