<svg xmlns="http://www.w3.org/2000/svg" width="300" height="290" viewBox="0 0 774.305 799.978" xmlns:xlink="http://www.w3.org/1999/xlink" role="img" artist="Katerina Limpitsouni" source="https://undraw.co/">
  
    <g transform="scale(2) translate(5 25)">
<path 
  d="M407.949,579.206l-296.571.1A41.125,41.125,0,0,1,75.665,517.5L223.856,247.726a41.215,41.215,0,0,1,71.386-.025l148.4,269.7a41.214,41.214,0,0,1-35.69,61.8Z" 
  transform="translate(-70.085 -227.107)" 
  fill="#D73000"
/>
      <g transform="translate(93.908 110.78)">
        <circle cx="103.25" cy="103.25" r="103.25" fill="#D73000"/>
        <path d="M13.347,7.97,12.264-83.3H30.682L29.508,7.97Zm8.216,38.255a11.746,11.746,0,0,1-8.622-3.566,12.1,12.1,0,0,1,0-17.154,11.746,11.746,0,0,1,8.622-3.566,11.6,11.6,0,0,1,8.577,3.566,11.822,11.822,0,0,1,3.521,8.622A11.716,11.716,0,0,1,30.14,42.66,11.6,11.6,0,0,1,21.563,46.226Z" transform="translate(81.734 121.789)" fill="#fff"/>
      </g>
    </g>
</svg>
