<svg xmlns="http://www.w3.org/2000/svg" xmlns:xlink="http://www.w3.org/1999/xlink" viewBox="0 0 300 300" shape-rendering="geometricPrecision" text-rendering="geometricPrecision" project-id="8ca4db175f1f44338399ad43e9960571" export-id="88e7959a3fdc4c6988f772e240c5d36e" cached="false">
  <g transform="matrix(-.707107-.707107 0.707107-.707107 253.236797 496.651496)">
    <path class="fill-danger-none" d="M314.97,39.8c41.33652-.007854,80.181201,19.763903,104.5,53.19l-57.46,41.8c-10.943601-15.03824-28.421316-23.933214-47.02-23.93l-.02-71.06Z" stroke="#fff" stroke-width="5"/>
    <path class="fill-danger-low" d="M419.55,93.09c24.25761,33.41259,31.084497,76.406741,18.37,115.69l-67.6-21.88c5.720354-17.677868,2.646954-37.025055-8.27-52.06l57.5-41.75Z" stroke="#fff" stroke-width="5"/>
    <path class="fill-danger-medium" d="M437.88,208.91c-12.768812,39.312666-43.576585,70.142742-82.88,82.94l-22-67.57c17.687382-5.757073,31.552409-19.629535,37.3-37.32l67.58,21.95Z" stroke="#fff" stroke-width="5"/>
    <path class="fill-danger-high" d="M354.88,291.89c-39.275079,12.747013-82.277145,5.953497-115.71-18.28l41.71-57.54c15.044224,10.906601,34.395434,13.965184,52.07,8.23l21.93,67.59Z" stroke="#fff" stroke-width="5"/>
    <path class="fill-danger-extreme" d="M239.07,273.53c-33.442074-24.291282-53.243246-63.116745-53.27-104.45l71.06-.05c.009291,18.60234,8.919496,36.077047,23.97,47.01l-41.76,57.49Z" stroke="#fff" stroke-width="5"/>
  </g>
  <ellipse rx="17.416478" ry="17.416478" transform="matrix(1.273272 0 0 1.273272 60.662224 178.62315)" fill="#fff" stroke-width="0"/>
  <ellipse rx="17.416478" ry="17.416478" transform="matrix(1.273272 0 0 1.273272 240.662224 178.62315)" fill="#fff" stroke-width="0"/>
  <ellipse rx="17.416478" ry="17.416478" transform="matrix(1.273272 0 0 1.273272 72.113552 100.004292)" fill="#fff" stroke-width="0"/>
  <ellipse rx="17.416478" ry="17.416478" transform="matrix(1.273272 0 0 1.273272 226.113552 100.004292)" fill="#fff" stroke-width="0"/>
  <ellipse rx="17.416478" ry="17.416478" transform="matrix(1.273272 0 0 1.273272 150 62.1017)" fill="#fff" stroke-width="0"/>
  <path class="fill-danger-none" d="M256,48C141.31,48,48,141.31,48,256s93.31,208,208,208s208-93.31,208-208-93.31-208-208-208Zm48.19,121.42l24.1,21.06-73.61,84.1-24.1-23.06l73.61-82.1ZM191.93,342.63L121.37,272L144,249.37L214.57,320l-22.64,22.63Zm65,.79L185.55,272l22.64-22.62l47.16,47.21L366.48,169.42l24.1,21.06L256.93,343.42Z" transform="matrix(.087044 0 0 0.087044 38.37896 156.339886)" stroke="#000" stroke-width="0"/>
  <path class="fill-danger-low" d="M260.26581,48C143.223667,48,48,143.223667,48,260.26581s95.223667,212.26581,212.26581,212.26581s212.26581-95.223667,212.26581-212.26581-95.223667-212.26581-212.26581-212.26581ZM221.486479,366.786508l-82.253001-91.406964l24.277902-21.849091l57.148487,63.496051L356.193628,155.622848l25.043283,20.961248L221.486479,366.786508Z" transform="matrix(.085294 0 0 0.085294 50.278292 77.80518)" stroke="#000" stroke-width="0"/>
  <path class="fill-danger-medium" d="M74.105,56C64.121903,56,56,64.121903,56,74.105s8.121903,18.105,18.105,18.105s18.105-8.121903,18.105-18.105-8.121903-18.105-18.105-18.105Zm0,7.42305c1.299885,0,2.35365,1.053765,2.35365,2.35365s-1.053765,2.35365-2.35365,2.35365-2.35365-1.053765-2.35365-2.35365s1.053765-2.35365,2.35365-2.35365ZM79.8986,83.8817h-10.863v-2.8968h3.9831v-7.9662h-2.8968v-2.8968h5.7936v10.863h3.9831v2.8968Z" transform="translate(75.865922-12.0033)" stroke="#000" stroke-width="0"/>
  <path class="fill-danger-high" d="M20.105,38.21C10.10588,38.21,2,30.104029,2,20.105s8.10588-18.105,18.105-18.105s18.105,8.10588,18.105,18.105-8.105971,18.105-18.105,18.105ZM18.2945,25.5365v3.621h3.621v-3.621h-3.621Zm0-14.484v10.863h3.621v-10.863h-3.621Z" transform="translate(206.008552 79.899292)" stroke="#000" stroke-width="0"/>
  <g transform="matrix(.087059 0 0 0.087059 218.375121 156.265337)">
    <circle class="fill-danger-extreme" r="48" transform="translate(256 256)" stroke="#000" stroke-width="0"/>
    <path d="M223.47,335.59l-51.71,68c52.196058,29.840576,116.283942,29.840576,168.48,0l-51.71-68" fill="none" stroke="#000" stroke-width="0"/>
    <path class="fill-danger-extreme" d="M403.08,108.92c-81.230041-81.230039-212.929958-81.230038-294.159998.000003s-81.230041,212.929956-.000002,294.159997s212.929958,81.230038,294.159998-.000003s81.230041-212.929956.000002-294.159997ZM342,256c-.043615,34.915498-21.162056,66.350261-53.47,79.59l51.71,68c-52.196058,29.840576-116.283942,29.840576-168.48,0l51.71-68c-40.057635-16.371354-61.711558-59.957585-50.56-101.77l-85.48.09c6.39614-48.422382,33.285949-91.76367,73.83-119L199.2,191.5c32.441393-28.666148,81.158607-28.666148,113.6,0l37.94-76.59c40.544051,27.23633,67.43386,70.577618,73.83,119l-85.48-.09c1.932993,7.234816,2.911292,14.691407,2.91,22.18Z" stroke="#000" stroke-width="0"/>
  </g>
  <g class="meter-pointer">
  <ellipse rx="11.608691" ry="11.608691" transform="matrix(1.557103 0 0 1.557103 150 150)" fill="#03292e" stroke-width="0"/>
  <polygon points="0,-48.525656 42.024451,24.262828 -42.024451,24.262828 0,-48.525656" transform="matrix(.283087 0 0 0.840835 150 127.806364)" fill="#03292e" stroke-width="0" stroke-linecap="round"/>
  <ellipse rx="6.376277" ry="6.376277" transform="matrix(1.557103 0 0 1.557103 150 150)" fill="#3a4957" stroke-width="0"/>
  </g>
</svg>
